# xmcd
#
# Track frame offsets: 
#        150
#        17493
#        38080
#        56910
#        73989
#        91237
#        109626
#        127318
#        146208
#        162667
#        182428
#        201769
#        216577
#        231076
#        251774
#        266368
#        286282
#
# Disc length: 4082 seconds
#
# Revision: 0
# Processed by: cddbd v1.5.2PL0 Copyright (c) Steve Scherf et al.
# Submitted via: ExactAudioCopyFreeDBPlugin 1.0
#
DISCID=0a0ff011
DTITLE=100年後の日本人に残したい… - ド演歌名曲特撰
DYEAR=2012
DGENRE=Blues
TTITLE0=山本譲二 - みちのくひとり旅
TTITLE1=天童よしみ - 道頓堀人情
TTITLE2=島津亜矢 - 愛染かつらをもう一度
TTITLE3=杉良太郎 - 無法松の一生 (度胸千両入り)
TTITLE4=天童よしみ - あばれ玄海 
TTITLE5=島津亜矢 - 毎度みなさまおなじみの
TTITLE6=羅勲児 - なんで泣く
TTITLE7=八代亜紀 - 舟唄
TTITLE8=天童よしみ - 酒きずな
TTITLE9=山本譲二 - 花も嵐も
TTITLE10=八代亜紀 - 愛の執念
TTITLE11=天童よしみ - 北酒場
TTITLE12=勝彩也 - 女のみち
TTITLE13=中条きよし - さざんかの宿
TTITLE14=増位山太志郎 - おやじの海
TTITLE15=八代亜紀 - おんな港町
TTITLE16=島津亜矢 - 兄弟船
EXTD=
EXTT0=
EXTT1=
EXTT2=
EXTT3=
EXTT4=
EXTT5=
EXTT6=
EXTT7=
EXTT8=
EXTT9=
EXTT10=
EXTT11=
EXTT12=
EXTT13=
EXTT14=
EXTT15=
EXTT16=
PLAYORDER=
